<svg id="Group_2909" data-name="Group 2909" xmlns="http://www.w3.org/2000/svg" width="198.129" height="198.129" viewBox="0 0 198.129 198.129">
  <path id="Path_7451" data-name="Path 7451" d="M99.064,198.129a99.064,99.064,0,1,1,99.064-99.064A99.174,99.174,0,0,1,99.064,198.129Zm0-185.746a86.681,86.681,0,1,0,86.681,86.681A86.777,86.777,0,0,0,99.064,12.383Zm0,0" fill="#0160d6"/>
  <path id="Path_7452" data-name="Path 7452" d="M179.691,236.7a6.143,6.143,0,0,1-4.376-1.815l-26.829-26.829a6.194,6.194,0,0,1,8.76-8.76L179.7,221.751l49.286-49.284a6.193,6.193,0,0,1,8.758,8.758l-53.66,53.66a6.2,6.2,0,0,1-4.391,1.815Zm0,0" transform="translate(-89.914 -104.615)" fill="#0160d6"/>
</svg>
