<svg xmlns="http://www.w3.org/2000/svg" width="21.5" height="21.5" viewBox="0 0 21.5 21.5">
  <g id="_x31_123_x2C__Device_x2C__Document_x2C__Fax_x2C__Office_x2C__Printer" transform="translate(-26 -26)">
    <g id="Group_902" data-name="Group 902" transform="translate(26 26)">
      <path id="Path_1286" data-name="Path 1286" d="M46.028,31.609H43.761V27.893A1.9,1.9,0,0,0,41.868,26H31.632a1.9,1.9,0,0,0-1.893,1.893v3.716H27.472A1.474,1.474,0,0,0,26,33.081v7.338a1.474,1.474,0,0,0,1.472,1.472h1.8v5.141a.467.467,0,0,0,.467.467H43.761a.467.467,0,0,0,.467-.467V41.891h1.8A1.474,1.474,0,0,0,47.5,40.419V33.081A1.474,1.474,0,0,0,46.028,31.609Zm-14.4-4.674H41.868a.959.959,0,0,1,.957.935H30.675A.959.959,0,0,1,31.632,26.935Zm-.958,1.87H42.826v2.8H30.674Zm12.62,17.761H30.207V38.152H43.294Zm3.272-6.146a.538.538,0,0,1-.538.538h-1.8V37.685a.467.467,0,0,0-.467-.467H29.739a.467.467,0,0,0-.467.467v3.272h-1.8a.538.538,0,0,1-.538-.538V33.081a.538.538,0,0,1,.538-.537H46.028a.538.538,0,0,1,.538.537Z" transform="translate(-26 -26)" fill="#fff"/>
      <path id="Path_1287" data-name="Path 1287" d="M387.4,186a1.4,1.4,0,1,0,1.4,1.4A1.4,1.4,0,0,0,387.4,186Zm0,1.87a.467.467,0,1,1,.467-.467A.468.468,0,0,1,387.4,187.87Z" transform="translate(-369.174 -178.522)" fill="#fff"/>
      <path id="Path_1288" data-name="Path 1288" d="M67.87,206h-1.4a.467.467,0,1,0,0,.935h1.4a.467.467,0,1,0,0-.935Z" transform="translate(-64.13 -197.587)" fill="#fff"/>
      <path id="Path_1289" data-name="Path 1289" d="M137.87,206h-1.4a.467.467,0,1,0,0,.935h1.4a.467.467,0,0,0,0-.935Z" transform="translate(-130.859 -197.587)" fill="#fff"/>
      <path id="Path_1290" data-name="Path 1290" d="M146.75,306H136.467a.467.467,0,1,0,0,.935H146.75a.467.467,0,0,0,0-.935Z" transform="translate(-130.859 -292.913)" fill="#fff"/>
      <path id="Path_1291" data-name="Path 1291" d="M146.75,346H136.467a.467.467,0,1,0,0,.935H146.75a.467.467,0,0,0,0-.935Z" transform="translate(-130.859 -331.043)" fill="#fff"/>
      <path id="Path_1292" data-name="Path 1292" d="M146.75,386H136.467a.467.467,0,1,0,0,.935H146.75a.467.467,0,0,0,0-.935Z" transform="translate(-130.859 -369.174)" fill="#fff"/>
      <path id="Path_1293" data-name="Path 1293" d="M146.75,426H136.467a.467.467,0,1,0,0,.935H146.75a.467.467,0,0,0,0-.935Z" transform="translate(-130.859 -407.304)" fill="#fff"/>
    </g>
  </g>
</svg>
