<svg xmlns="http://www.w3.org/2000/svg" width="18.32" height="18.354" viewBox="0 0 18.32 18.354">
  <path id="Icon_feather-phone-call" data-name="Icon feather-phone-call" d="M13.863,4.807a4.133,4.133,0,0,1,3.265,3.265M13.863,1.5a7.44,7.44,0,0,1,6.572,6.563m-.827,6.6v2.48a1.653,1.653,0,0,1-1.8,1.653,16.359,16.359,0,0,1-7.134-2.538,16.119,16.119,0,0,1-4.96-4.96A16.359,16.359,0,0,1,3.175,4.129a1.653,1.653,0,0,1,1.645-1.8H7.3A1.653,1.653,0,0,1,8.953,3.748a10.614,10.614,0,0,0,.579,2.323,1.653,1.653,0,0,1-.372,1.744L8.11,8.865a13.226,13.226,0,0,0,4.96,4.96l1.05-1.05a1.653,1.653,0,0,1,1.744-.372,10.614,10.614,0,0,0,2.323.579A1.653,1.653,0,0,1,19.608,14.66Z" transform="translate(-2.667 -0.948)" fill="none" stroke="#fff" stroke-linecap="round" stroke-linejoin="round" stroke-width="1"/>
</svg>
