<svg xmlns="http://www.w3.org/2000/svg" width="19.675" height="15.78" viewBox="0 0 19.675 15.78">
  <g id="open-book_1_" data-name="open-book (1)" transform="translate(0 0)">
    <path id="Path_7585" data-name="Path 7585" d="M288.145,182.137h-5.915a.288.288,0,1,0,0,.576h5.915a.288.288,0,1,0,0-.576Zm0,0" transform="translate(-271.107 -175.138)" fill="#fff"/>
    <path id="Path_7586" data-name="Path 7586" d="M288.145,222.328h-5.915a.288.288,0,1,0,0,.576h5.915a.288.288,0,1,0,0-.576Zm0,0" transform="translate(-271.107 -213.784)" fill="#fff"/>
    <path id="Path_7587" data-name="Path 7587" d="M288.145,262.516h-5.915a.288.288,0,0,0,0,.576h5.915a.288.288,0,1,0,0-.576Zm0,0" transform="translate(-271.107 -252.428)" fill="#fff"/>
    <path id="Path_7588" data-name="Path 7588" d="M288.145,302.707h-5.915a.288.288,0,1,0,0,.576h5.915a.288.288,0,1,0,0-.576Zm0,0" transform="translate(-271.107 -291.075)" fill="#fff"/>
    <path id="Path_7589" data-name="Path 7589" d="M86.938,76.744a8.819,8.819,0,0,1,1.1-.07,6.879,6.879,0,0,1,3.883,1.1.288.288,0,1,0,.324-.477,7.459,7.459,0,0,0-4.207-1.2,9.421,9.421,0,0,0-1.169.075.288.288,0,1,0,.072.572Zm0,0" transform="translate(-83.285 -73.173)" fill="#fff"/>
    <path id="Path_7590" data-name="Path 7590" d="M86.938,125.931a8.821,8.821,0,0,1,1.1-.07,6.878,6.878,0,0,1,3.883,1.1.288.288,0,1,0,.324-.477,7.458,7.458,0,0,0-4.207-1.2,9.419,9.419,0,0,0-1.169.075.288.288,0,0,0,.072.572Zm0,0" transform="translate(-83.285 -120.47)" fill="#fff"/>
    <path id="Path_7591" data-name="Path 7591" d="M92.079,176.2a.288.288,0,0,0,.162-.527,7.458,7.458,0,0,0-4.207-1.2,9.417,9.417,0,0,0-1.169.075.288.288,0,1,0,.072.572,8.844,8.844,0,0,1,1.1-.07,6.878,6.878,0,0,1,3.883,1.1.286.286,0,0,0,.162.05Zm0,0" transform="translate(-83.285 -167.768)" fill="#fff"/>
    <path id="Path_7592" data-name="Path 7592" d="M141.474,225.886a7.262,7.262,0,0,0-3.344-1.155.288.288,0,0,0-.057.574,6.678,6.678,0,0,1,3.077,1.058.288.288,0,1,0,.324-.477Zm0,0" transform="translate(-132.518 -216.094)" fill="#fff"/>
    <path id="Path_7593" data-name="Path 7593" d="M87.51,224.045c-.212.012-.429.032-.645.059a.288.288,0,0,0,.035.574l.036,0c.2-.026.407-.044.607-.056a.288.288,0,1,0-.033-.575Zm0,0" transform="translate(-83.285 -215.435)" fill="#fff"/>
    <path id="Path_7594" data-name="Path 7594" d="M288.018,90.762h-5.664a.414.414,0,0,0-.414.414v1.53a.414.414,0,0,0,.414.414h.781a.288.288,0,0,0,0-.576h-.619V91.338h5.339v1.206h-3.379a.288.288,0,0,0,0,.576h3.542a.414.414,0,0,0,.414-.414v-1.53A.414.414,0,0,0,288.018,90.762Zm0,0" transform="translate(-271.106 -87.274)" fill="#fff"/>
    <path id="Path_7595" data-name="Path 7595" d="M19.207,3.3h-.6V2.244a.567.567,0,0,0-.567-.567h-8.1A7,7,0,0,0,8.114.629,9.536,9.536,0,0,0,2.727.2.545.545,0,0,0,2.285.73v.947H1.517a.454.454,0,0,0-.453.453V3.3h-.6A.468.468,0,0,0,0,3.763V14.951a.468.468,0,0,0,.467.468H8.134a.16.16,0,0,1,.128.065.74.74,0,0,0,.591.3h1.968a.74.74,0,0,0,.591-.3.161.161,0,0,1,.128-.065h7.667a.468.468,0,0,0,.467-.468V3.763a.468.468,0,0,0-.467-.467ZM10.126,2.253h7.909V13.838H10.126ZM2.862.757a8.967,8.967,0,0,1,5.011.4A6.6,6.6,0,0,1,9.549,2.1V13.544a8.523,8.523,0,0,0-4.794-1.385,10.688,10.688,0,0,0-1.893.173ZM1.64,2.253h.645V12.372a.543.543,0,0,0,.641.535,8.942,8.942,0,0,1,4.964.414,7.328,7.328,0,0,1,1.049.517H1.64ZM19.1,14.843H11.541a.74.74,0,0,0-.591.3.161.161,0,0,1-.128.065H8.853a.161.161,0,0,1-.128-.065.74.74,0,0,0-.591-.3H.576V3.872h.487v10.09a.454.454,0,0,0,.453.453H18.044a.568.568,0,0,0,.567-.567V3.872H19.1Zm0,0" transform="translate(0)" fill="#fff"/>
  </g>
</svg>
