<svg xmlns="http://www.w3.org/2000/svg" width="46.78" height="56.136" viewBox="0 0 46.78 56.136">
  <g id="document" transform="translate(-40)">
    <g id="Group_1397" data-name="Group 1397" transform="translate(51.227 40.231)">
      <g id="Group_1396" data-name="Group 1396" transform="translate(0)">
        <path id="Path_152" data-name="Path 152" d="M138.807,344h-1.871a.936.936,0,1,0,0,1.871h1.871a.936.936,0,1,0,0-1.871Z" transform="translate(-136 -344)" fill="#fff"/>
      </g>
    </g>
    <g id="Group_1399" data-name="Group 1399" transform="translate(56.841 40.231)">
      <g id="Group_1398" data-name="Group 1398" transform="translate(0)">
        <path id="Path_153" data-name="Path 153" d="M207.39,344H184.936a.936.936,0,1,0,0,1.871H207.39a.936.936,0,0,0,0-1.871Z" transform="translate(-184 -344)" fill="#fff"/>
      </g>
    </g>
    <g id="Group_1401" data-name="Group 1401" transform="translate(51.227 34.617)">
      <g id="Group_1400" data-name="Group 1400" transform="translate(0)">
        <path id="Path_154" data-name="Path 154" d="M138.807,296h-1.871a.936.936,0,1,0,0,1.871h1.871a.936.936,0,1,0,0-1.871Z" transform="translate(-136 -296)" fill="#fff"/>
      </g>
    </g>
    <g id="Group_1403" data-name="Group 1403" transform="translate(56.841 34.617)">
      <g id="Group_1402" data-name="Group 1402" transform="translate(0)">
        <path id="Path_155" data-name="Path 155" d="M207.39,296H184.936a.936.936,0,1,0,0,1.871H207.39a.936.936,0,0,0,0-1.871Z" transform="translate(-184 -296)" fill="#fff"/>
      </g>
    </g>
    <g id="Group_1405" data-name="Group 1405" transform="translate(51.227 29.003)">
      <g id="Group_1404" data-name="Group 1404" transform="translate(0)">
        <path id="Path_156" data-name="Path 156" d="M138.807,248h-1.871a.936.936,0,1,0,0,1.871h1.871a.936.936,0,1,0,0-1.871Z" transform="translate(-136 -248)" fill="#fff"/>
      </g>
    </g>
    <g id="Group_1407" data-name="Group 1407" transform="translate(56.841 29.003)">
      <g id="Group_1406" data-name="Group 1406" transform="translate(0)">
        <path id="Path_157" data-name="Path 157" d="M207.39,248H184.936a.936.936,0,1,0,0,1.871H207.39a.936.936,0,0,0,0-1.871Z" transform="translate(-184 -248)" fill="#fff"/>
      </g>
    </g>
    <g id="Group_1409" data-name="Group 1409" transform="translate(51.227 23.39)">
      <g id="Group_1408" data-name="Group 1408" transform="translate(0)">
        <path id="Path_158" data-name="Path 158" d="M138.807,200h-1.871a.936.936,0,1,0,0,1.871h1.871a.936.936,0,0,0,0-1.871Z" transform="translate(-136 -200)" fill="#fff"/>
      </g>
    </g>
    <g id="Group_1411" data-name="Group 1411" transform="translate(56.841 23.39)">
      <g id="Group_1410" data-name="Group 1410" transform="translate(0)">
        <path id="Path_159" data-name="Path 159" d="M207.39,200H184.936a.936.936,0,1,0,0,1.871H207.39a.936.936,0,0,0,0-1.871Z" transform="translate(-184 -200)" fill="#fff"/>
      </g>
    </g>
    <g id="Group_1413" data-name="Group 1413" transform="translate(51.227 17.776)">
      <g id="Group_1412" data-name="Group 1412" transform="translate(0)">
        <path id="Path_160" data-name="Path 160" d="M138.807,152h-1.871a.936.936,0,1,0,0,1.871h1.871a.936.936,0,0,0,0-1.871Z" transform="translate(-136 -152)" fill="#fff"/>
      </g>
    </g>
    <g id="Group_1415" data-name="Group 1415" transform="translate(56.841 17.776)">
      <g id="Group_1414" data-name="Group 1414" transform="translate(0)">
        <path id="Path_161" data-name="Path 161" d="M207.39,152H184.936a.936.936,0,1,0,0,1.871H207.39a.936.936,0,0,0,0-1.871Z" transform="translate(-184 -152)" fill="#fff"/>
      </g>
    </g>
    <g id="Group_1417" data-name="Group 1417" transform="translate(40)">
      <g id="Group_1416" data-name="Group 1416" transform="translate(0)">
        <path id="Path_162" data-name="Path 162" d="M86.768,13.975a.884.884,0,0,0-.048-.24c-.01-.03-.018-.059-.031-.088a.935.935,0,0,0-.187-.274L73.4.274a.935.935,0,0,0-.274-.187C73.1.074,73.071.066,73.042.056A.932.932,0,0,0,72.8.007C72.784.01,72.766,0,72.746,0h-26.2a.936.936,0,0,0-.936.936V3.742H40.936A.936.936,0,0,0,40,4.678V55.2a.936.936,0,0,0,.936.936h39.3a.936.936,0,0,0,.936-.936V50.522h4.678a.936.936,0,0,0,.936-.936V14.034C86.78,14.013,86.769,14,86.768,13.975ZM73.681,3.194l9.9,9.9h-9.9ZM79.3,54.265H41.871V5.614h3.742V49.587a.936.936,0,0,0,.936.936H79.3Zm5.614-5.614H47.485V1.871H71.81V14.034a.936.936,0,0,0,.936.936H84.909Z" transform="translate(-40)" fill="#fff"/>
      </g>
    </g>
    <g id="Group_1419" data-name="Group 1419" transform="translate(51.227 8.42)">
      <g id="Group_1418" data-name="Group 1418" transform="translate(0)">
        <path id="Path_163" data-name="Path 163" d="M142.549,72h-5.614a.936.936,0,0,0-.936.936v5.614a.936.936,0,0,0,.936.936h5.614a.936.936,0,0,0,.936-.936V72.936A.936.936,0,0,0,142.549,72Zm-.936,5.614h-3.742V73.871h3.742Z" transform="translate(-136 -72)" fill="#fff"/>
      </g>
    </g>
  </g>
</svg>
