<svg id="document" xmlns="http://www.w3.org/2000/svg" width="25.457" height="30.548" viewBox="0 0 25.457 30.548">
  <g id="Group_1397" data-name="Group 1397" transform="translate(6.11 21.893)">
    <g id="Group_1396" data-name="Group 1396" transform="translate(0)">
      <path id="Path_152" data-name="Path 152" d="M137.527,344h-1.018a.509.509,0,1,0,0,1.018h1.018a.509.509,0,1,0,0-1.018Z" transform="translate(-136 -344)" fill="#fff"/>
    </g>
  </g>
  <g id="Group_1399" data-name="Group 1399" transform="translate(9.164 21.893)">
    <g id="Group_1398" data-name="Group 1398" transform="translate(0)">
      <path id="Path_153" data-name="Path 153" d="M196.728,344H184.509a.509.509,0,1,0,0,1.018h12.219a.509.509,0,1,0,0-1.018Z" transform="translate(-184 -344)" fill="#fff"/>
    </g>
  </g>
  <g id="Group_1401" data-name="Group 1401" transform="translate(6.11 18.838)">
    <g id="Group_1400" data-name="Group 1400" transform="translate(0)">
      <path id="Path_154" data-name="Path 154" d="M137.527,296h-1.018a.509.509,0,1,0,0,1.018h1.018a.509.509,0,0,0,0-1.018Z" transform="translate(-136 -296)" fill="#fff"/>
    </g>
  </g>
  <g id="Group_1403" data-name="Group 1403" transform="translate(9.164 18.838)">
    <g id="Group_1402" data-name="Group 1402" transform="translate(0)">
      <path id="Path_155" data-name="Path 155" d="M196.728,296H184.509a.509.509,0,1,0,0,1.018h12.219a.509.509,0,0,0,0-1.018Z" transform="translate(-184 -296)" fill="#fff"/>
    </g>
  </g>
  <g id="Group_1405" data-name="Group 1405" transform="translate(6.11 15.783)">
    <g id="Group_1404" data-name="Group 1404" transform="translate(0)">
      <path id="Path_156" data-name="Path 156" d="M137.527,248h-1.018a.509.509,0,1,0,0,1.018h1.018a.509.509,0,1,0,0-1.018Z" transform="translate(-136 -248)" fill="#fff"/>
    </g>
  </g>
  <g id="Group_1407" data-name="Group 1407" transform="translate(9.164 15.783)">
    <g id="Group_1406" data-name="Group 1406" transform="translate(0)">
      <path id="Path_157" data-name="Path 157" d="M196.728,248H184.509a.509.509,0,1,0,0,1.018h12.219a.509.509,0,0,0,0-1.018Z" transform="translate(-184 -248)" fill="#fff"/>
    </g>
  </g>
  <g id="Group_1409" data-name="Group 1409" transform="translate(6.11 12.728)">
    <g id="Group_1408" data-name="Group 1408" transform="translate(0)">
      <path id="Path_158" data-name="Path 158" d="M137.527,200h-1.018a.509.509,0,1,0,0,1.018h1.018a.509.509,0,0,0,0-1.018Z" transform="translate(-136 -200)" fill="#fff"/>
    </g>
  </g>
  <g id="Group_1411" data-name="Group 1411" transform="translate(9.164 12.728)">
    <g id="Group_1410" data-name="Group 1410" transform="translate(0)">
      <path id="Path_159" data-name="Path 159" d="M196.728,200H184.509a.509.509,0,1,0,0,1.018h12.219a.509.509,0,0,0,0-1.018Z" transform="translate(-184 -200)" fill="#fff"/>
    </g>
  </g>
  <g id="Group_1413" data-name="Group 1413" transform="translate(6.11 9.673)">
    <g id="Group_1412" data-name="Group 1412" transform="translate(0)">
      <path id="Path_160" data-name="Path 160" d="M137.527,152h-1.018a.509.509,0,1,0,0,1.018h1.018a.509.509,0,0,0,0-1.018Z" transform="translate(-136 -152)" fill="#fff"/>
    </g>
  </g>
  <g id="Group_1415" data-name="Group 1415" transform="translate(9.164 9.673)">
    <g id="Group_1414" data-name="Group 1414" transform="translate(0)">
      <path id="Path_161" data-name="Path 161" d="M196.728,152H184.509a.509.509,0,1,0,0,1.018h12.219a.509.509,0,0,0,0-1.018Z" transform="translate(-184 -152)" fill="#fff"/>
    </g>
  </g>
  <g id="Group_1417" data-name="Group 1417" transform="translate(0)">
    <g id="Group_1416" data-name="Group 1416" transform="translate(0)">
      <path id="Path_162" data-name="Path 162" d="M65.45,7.6a.48.48,0,0,0-.026-.131c-.006-.016-.01-.032-.017-.048a.509.509,0,0,0-.1-.149L58.177.149a.509.509,0,0,0-.149-.1C58.013.04,58,.036,57.981.031A.507.507,0,0,0,57.849,0c-.009,0-.018,0-.03,0H43.564a.509.509,0,0,0-.509.509V2.037H40.509A.509.509,0,0,0,40,2.546V30.039a.509.509,0,0,0,.509.509H61.893a.509.509,0,0,0,.509-.509V27.493h2.546a.509.509,0,0,0,.509-.509V7.637C65.457,7.626,65.451,7.616,65.45,7.6ZM58.329,1.738l5.39,5.39h-5.39ZM61.383,29.53H41.018V3.055h2.037V26.984a.509.509,0,0,0,.509.509h17.82Zm3.055-3.055H44.073V1.018H57.31V7.637a.509.509,0,0,0,.509.509h6.619Z" transform="translate(-40)" fill="#fff"/>
    </g>
  </g>
  <g id="Group_1419" data-name="Group 1419" transform="translate(6.11 4.582)">
    <g id="Group_1418" data-name="Group 1418" transform="translate(0)">
      <path id="Path_163" data-name="Path 163" d="M139.564,72h-3.055a.509.509,0,0,0-.509.509v3.055a.509.509,0,0,0,.509.509h3.055a.509.509,0,0,0,.509-.509V72.509A.509.509,0,0,0,139.564,72Zm-.509,3.055h-2.036V73.018h2.036Z" transform="translate(-136 -72)" fill="#fff"/>
    </g>
  </g>
</svg>
