<svg id="add" xmlns="http://www.w3.org/2000/svg" width="22.346" height="22.346" viewBox="0 0 22.346 22.346">
  <g id="Group_1393" data-name="Group 1393">
    <g id="Group_1392" data-name="Group 1392">
      <path id="Path_150" data-name="Path 150" d="M11.173,0A11.173,11.173,0,1,0,22.346,11.173,11.185,11.185,0,0,0,11.173,0Zm0,20.615a9.442,9.442,0,1,1,9.442-9.442A9.453,9.453,0,0,1,11.173,20.615Z" fill="#fff"/>
    </g>
  </g>
  <g id="Group_1395" data-name="Group 1395" transform="translate(5.98 5.902)">
    <g id="Group_1394" data-name="Group 1394">
      <path id="Path_151" data-name="Path 151" d="M146.542,139.565H143.08V136.1a.865.865,0,0,0-1.731,0v3.462h-3.462a.865.865,0,1,0,0,1.731h3.462v3.462a.865.865,0,0,0,1.731,0V141.3h3.462a.865.865,0,0,0,0-1.731Z" transform="translate(-137.022 -135.238)" fill="#fff"/>
    </g>
  </g>
</svg>
