<svg id="down-arrow" xmlns="http://www.w3.org/2000/svg" width="21.346" height="21.346" viewBox="0 0 21.346 21.346">
  <g id="Group_1421" data-name="Group 1421" transform="translate(0 13.05)">
    <g id="Group_1420" data-name="Group 1420">
      <path id="Path_164" data-name="Path 164" d="M19.679,313v5.8a.835.835,0,0,1-.834.834H2.5a.835.835,0,0,1-.834-.834V313H0v5.8a2.5,2.5,0,0,0,2.5,2.5H18.845a2.5,2.5,0,0,0,2.5-2.5V313Z" transform="translate(0 -313)" fill="#fff"/>
    </g>
  </g>
  <g id="Group_1423" data-name="Group 1423" transform="translate(5.491)">
    <g id="Group_1422" data-name="Group 1422">
      <path id="Path_165" data-name="Path 165" d="M140.9,9.827,137.731,13V0h-1.668V13L132.9,9.827l-1.179,1.179,5.182,5.182,5.182-5.182Z" transform="translate(-131.716)" fill="#fff"/>
    </g>
  </g>
</svg>
