<svg id="down-arrow" xmlns="http://www.w3.org/2000/svg" width="17.077" height="17.077" viewBox="0 0 17.077 17.077">
  <g id="Group_1421" data-name="Group 1421" transform="translate(0 10.44)">
    <g id="Group_1420" data-name="Group 1420">
      <path id="Path_164" data-name="Path 164" d="M15.743,313v4.636a.668.668,0,0,1-.667.667H2a.668.668,0,0,1-.667-.667V313H0v4.636a2,2,0,0,0,2,2H15.076a2,2,0,0,0,2-2V313Z" transform="translate(0 -313)" fill="#fff"/>
    </g>
  </g>
  <g id="Group_1423" data-name="Group 1423" transform="translate(4.393)">
    <g id="Group_1422" data-name="Group 1422">
      <path id="Path_165" data-name="Path 165" d="M139.063,7.862,136.528,10.4V0h-1.334V10.4l-2.535-2.535-.943.943,4.145,4.145,4.145-4.145Z" transform="translate(-131.716)" fill="#fff"/>
    </g>
  </g>
</svg>
