<svg xmlns="http://www.w3.org/2000/svg" width="10.095" height="9.208" viewBox="0 0 10.095 9.208">
  <g id="folder" transform="translate(0 -22.5)">
    <path id="Path_7602" data-name="Path 7602" d="M9.356,23.683H5.109l-.966-.966A.735.735,0,0,0,3.62,22.5H.739A.74.74,0,0,0,0,23.239v7.729a.74.74,0,0,0,.739.739H9.356a.74.74,0,0,0,.739-.739V24.422A.74.74,0,0,0,9.356,23.683ZM.739,22.8H3.62a.441.441,0,0,1,.314.13l1.01,1.01a.148.148,0,0,0,.1.043H9.356a.444.444,0,0,1,.444.444v.592a.736.736,0,0,0-.3-.133v-.459a.148.148,0,0,0-.148-.148H.739a.148.148,0,0,0-.148.148v1.642a.736.736,0,0,0-.3.133V23.239A.444.444,0,0,1,.739,22.8Zm1.183,2.07a.148.148,0,1,0,0,.3H5.874l-.887.887H.887v-.887h.444a.148.148,0,1,0,0-.3H.887v-.3H9.208v.3Zm7.877,6.1a.444.444,0,0,1-.444.444H.739A.444.444,0,0,1,.3,30.969v-4.18a.444.444,0,0,1,.444-.444H5.048a.148.148,0,0,0,.1-.043l1.01-1.01a.441.441,0,0,1,.314-.13h2.88a.444.444,0,0,1,.444.444Z" fill="#fff"/>
  </g>
</svg>
