<svg xmlns="http://www.w3.org/2000/svg" width="8.757" height="9.431" viewBox="0 0 8.757 9.431">
  <g id="down-arrow_1_" data-name="down-arrow (1)" transform="translate(-17.066)">
    <g id="Group_2823" data-name="Group 2823" transform="translate(17.066 6.063)">
      <g id="Group_2822" data-name="Group 2822" transform="translate(0)">
        <path id="Path_7603" data-name="Path 7603" d="M25.486,307.2a.337.337,0,0,0-.337.337v2.021a.337.337,0,0,1-.337.337H18.076a.337.337,0,0,1-.337-.337v-2.021a.337.337,0,1,0-.674,0v2.021a1.01,1.01,0,0,0,1.01,1.01h6.736a1.01,1.01,0,0,0,1.01-1.01v-2.021A.337.337,0,0,0,25.486,307.2Z" transform="translate(-17.066 -307.2)" fill="#fff"/>
      </g>
    </g>
    <g id="Group_2825" data-name="Group 2825" transform="translate(19.428)">
      <g id="Group_2824" data-name="Group 2824" transform="translate(0)">
        <path id="Path_7604" data-name="Path 7604" d="M140.673,5.824a.337.337,0,0,0-.468,0L139.1,6.934V.337a.337.337,0,0,0-.674,0v6.6l-1.109-1.109a.337.337,0,0,0-.476.476l1.684,1.684a.337.337,0,0,0,.476,0h0L140.682,6.3A.337.337,0,0,0,140.673,5.824Z" transform="translate(-136.742)" fill="#fff"/>
      </g>
    </g>
  </g>
</svg>
