<svg xmlns="http://www.w3.org/2000/svg" width="10.252" height="10.363" viewBox="0 0 10.252 10.363">
  <path id="Path_7597" data-name="Path 7597" d="M12.043,6.445a.864.864,0,0,0-.654-.3h-.061V5.282a.865.865,0,0,0-.691-.846V2.864a.173.173,0,0,0-.173-.173H9.945V2.173A.173.173,0,0,0,9.772,2H3.9a.173.173,0,0,0-.173.173V3.4a.865.865,0,0,0-.691.846v.173H2.864A.865.865,0,0,0,2,5.282v6.909a.285.285,0,0,0,.04.111.173.173,0,0,0,.132.062h8.386a.857.857,0,0,0,.853-.73l.83-4.5a.864.864,0,0,0-.2-.692ZM10.982,5.282v.864h-.345V4.8a.518.518,0,0,1,.345.486Zm-.691.864H4.764V3.036h5.527Zm-6.218-3.8H9.6v.345H4.591a.173.173,0,0,0-.173.173V6.145H4.073ZM2.345,5.282a.518.518,0,0,1,.518-.518h.345a.173.173,0,0,0,.173-.173V4.245a.518.518,0,0,1,.345-.486V6.152a.854.854,0,0,0-.777.724l-.6,3.374ZM11.9,7.08l-.83,4.5a.521.521,0,0,1-.512.441H2.38l.912-5.086A.521.521,0,0,1,3.8,6.491h7.584a.518.518,0,0,1,.514.589Z" transform="translate(-2 -2)" fill="#fff"/>
</svg>
