<svg xmlns="http://www.w3.org/2000/svg" width="22.162" height="17.054" viewBox="0 0 22.162 17.054">
  <g id="map" transform="translate(0 -59)">
    <path id="Path_7605" data-name="Path 7605" d="M22.158,66.242V61.477a.976.976,0,0,0-1.079-1.045H8.8a1.336,1.336,0,0,0-2.591,0H4.036v-.547A.886.886,0,0,0,3.15,59H1.971A1.973,1.973,0,0,0,0,60.969V74.085a1.973,1.973,0,0,0,1.971,1.969H6.2a.325.325,0,1,0,0-.649H1.971a1.32,1.32,0,1,1,0-2.64H3.15a.886.886,0,0,0,.885-.885V68.44h3L12.4,75.405H7.6a.325.325,0,1,0,0,.649H21.025a1.026,1.026,0,0,0,1.133-1.131V68.162a.322.322,0,0,0,0-.047ZM7.507,60.071a.685.685,0,1,1-.649.907.323.323,0,0,0,0-.443A.687.687,0,0,1,7.507,60.071ZM3.387,71.88a.239.239,0,0,1-.236.235H1.971a1.965,1.965,0,0,0-1.322.51V60.969a1.323,1.323,0,0,1,1.322-1.32H3.15a.239.239,0,0,1,.236.235Zm18.123,3.043c0,.333-.07.482-.484.482H15.58L10.218,68.44H21.509Zm0-7.133H9.914a.547.547,0,0,0-.526.244.53.53,0,0,0,.123.551l5.25,6.82H13.216l-5.689-7.39a.579.579,0,0,0-.5-.224h-3V66.567h2.7a.325.325,0,0,0,0-.649h-2.7V61.081H6.212a1.34,1.34,0,0,0,.971.97v.986a.325.325,0,1,0,.649,0v-.986a1.34,1.34,0,0,0,.971-.97h6.64v2.578H12.728a.514.514,0,0,0-.514.513v1.747h-3.9a.325.325,0,0,0,0,.649h7.174a.606.606,0,0,0,.606-.605V61.081h1.226v4.881a.606.606,0,0,0,.606.605h3.586Zm-6.066-3.483v1.611H12.864V64.308Zm6.066,1.611H17.967V61.081h3.112c.361,0,.43.139.43.4Z" fill="#0160d6"/>
    <path id="Path_7606" data-name="Path 7606" d="M113.192,322.119a.325.325,0,0,0,.325-.325v-.986a1.336,1.336,0,1,0-.649,0v.986A.325.325,0,0,0,113.192,322.119Zm-.686-2.605a.687.687,0,1,1,.686.685.687.687,0,0,1-.686-.685Z" transform="translate(-107.014 -247.96)" fill="#0160d6"/>
    <path id="Path_7607" data-name="Path 7607" d="M323.454,293.2v.986a.325.325,0,0,0,.649,0V293.2a1.336,1.336,0,1,0-.649,0Zm.325-1.98a.685.685,0,1,1-.686.685A.687.687,0,0,1,323.779,291.222Z" transform="translate(-308.486 -221.549)" fill="#0160d6"/>
  </g>
</svg>
