<svg xmlns="http://www.w3.org/2000/svg" width="20.263" height="23.054" viewBox="0 0 20.263 23.054">
  <g id="location" transform="translate(-31)">
    <g id="Group_2844" data-name="Group 2844" transform="translate(31)">
      <g id="Group_2843" data-name="Group 2843">
        <path id="Path_7608" data-name="Path 7608" d="M44.98,15.232c2.453-3.85,2.145-3.369,2.216-3.47a7.374,7.374,0,0,0,1.365-4.288,7.43,7.43,0,1,0-13.455,4.343l2.176,3.415C34.956,15.59,31,16.655,31,19c0,.855.558,2.074,3.218,3.024a21.318,21.318,0,0,0,6.913,1.028C46,23.054,51.262,21.682,51.262,19,51.262,16.655,47.312,15.591,44.98,15.232Zm-8.746-4.158-.023-.034a6.079,6.079,0,1,1,9.889-.068c-.065.086.274-.442-4.969,7.786Zm4.9,10.629c-5.313,0-8.78-1.562-8.78-2.7,0-.766,1.782-2.026,5.73-2.517l2.481,3.893a.675.675,0,0,0,1.139,0l2.481-3.893c3.948.491,5.73,1.751,5.73,2.517C49.912,20.132,46.475,21.7,41.131,21.7Z" transform="translate(-31)" fill="#0160d6"/>
      </g>
    </g>
    <g id="Group_2846" data-name="Group 2846" transform="translate(37.754 4.098)">
      <g id="Group_2845" data-name="Group 2845">
        <path id="Path_7609" data-name="Path 7609" d="M184.377,91a3.377,3.377,0,1,0,3.377,3.377A3.381,3.381,0,0,0,184.377,91Zm0,5.4a2.026,2.026,0,1,1,2.026-2.026A2.029,2.029,0,0,1,184.377,96.4Z" transform="translate(-181 -91)" fill="#0160d6"/>
      </g>
    </g>
  </g>
</svg>
