<svg id="graph" xmlns="http://www.w3.org/2000/svg" width="20" height="20.004" viewBox="0 0 20 20.004">
  <path id="Path_6453" data-name="Path 6453" d="M270.973,34.954a.438.438,0,0,1-.248-.077,4.85,4.85,0,0,0-1.866-.774.439.439,0,0,1-.359-.432V29.4a.439.439,0,0,1,.484-.437,9.967,9.967,0,0,1,5.288,2.191.442.442,0,0,1,.033.652l-3.021,3.021a.439.439,0,0,1-.311.129Zm-1.595-1.636a5.7,5.7,0,0,1,1.534.636l2.418-2.418a9.083,9.083,0,0,0-3.952-1.638Z" transform="translate(-257.974 -28.959)" fill="#0160d6"/>
  <path id="Path_6454" data-name="Path 6454" d="M33.672,38.373H29.4a.439.439,0,0,1-.437-.484A10.085,10.085,0,0,1,37.9,28.948a.442.442,0,0,1,.484.437s0,4.272,0,4.272a.439.439,0,0,1-.359.432A4.938,4.938,0,0,0,34.1,38.014a.439.439,0,0,1-.432.359ZM29.9,37.494h3.419a5.822,5.822,0,0,1,4.19-4.19V29.885A9.178,9.178,0,0,0,29.9,37.494Z" transform="translate(-28.96 -28.945)" fill="#0160d6"/>
  <path id="Path_6455" data-name="Path 6455" d="M38.936,277.978a10.028,10.028,0,0,1-9.974-8.994.439.439,0,0,1,.437-.484h4.272a.439.439,0,0,1,.432.359,4.93,4.93,0,0,0,8.558,2.3.439.439,0,0,1,.553-.093l3.7,2.143a.439.439,0,0,1,.135.639,10.052,10.052,0,0,1-8.111,4.13Zm-9.038-8.6a9.17,9.17,0,0,0,16.139,4.339L43.08,272a5.814,5.814,0,0,1-9.761-2.624Z" transform="translate(-28.96 -257.973)" fill="#0160d6"/>
  <path id="Path_6456" data-name="Path 6456" d="M351.386,119.3a.439.439,0,0,1-.22-.059l-3.7-2.143a.439.439,0,0,1-.194-.527,4.924,4.924,0,0,0-.578-4.413.439.439,0,0,1,.052-.559l3.021-3.021a.439.439,0,0,1,.652.033,10.074,10.074,0,0,1,1.366,10.43.441.441,0,0,1-.4.259Zm-3.172-2.786,2.959,1.716a9.2,9.2,0,0,0-1.137-8.677l-2.418,2.418a5.813,5.813,0,0,1,.595,4.544Z" transform="translate(-332.661 -104.957)" fill="#0160d6"/>
</svg>
