<svg xmlns="http://www.w3.org/2000/svg" width="35" height="35" viewBox="0 0 35 35">
  <g id="youtube" transform="translate(0.447 0.227)">
    <circle id="Ellipse_263" data-name="Ellipse 263" cx="17.5" cy="17.5" r="17.5" transform="translate(-0.447 -0.227)" fill="#f47136"/>
    <g id="gmail" transform="translate(5.619 -55.302)">
      <rect id="Rectangle_2060" data-name="Rectangle 2060" width="17.306" height="16.997" transform="translate(2.781 64.155)" fill="#eceff1"/>
      <path id="Path_1442" data-name="Path 1442" d="M256,155.269l8.576,6.772V148.672Z" transform="translate(-244.566 -80.89)" fill="#cfd8dc"/>
      <path id="Path_1443" data-name="Path 1443" d="M20.724,64H20.01l-8.576,6.772L2.859,64H2.144A2.145,2.145,0,0,0,0,66.144V79.007a2.145,2.145,0,0,0,2.144,2.144h.715V67.782l8.576,6.6,8.576-6.6V81.151h.715a2.145,2.145,0,0,0,2.144-2.144V66.144A2.145,2.145,0,0,0,20.724,64Z" fill="#f44336"/>
    </g>
  </g>
</svg>
