<svg xmlns="http://www.w3.org/2000/svg" width="35" height="35" viewBox="0 0 35 35">
  <g id="Group_1434" data-name="Group 1434" transform="translate(-1483 -3726.999)">
    <circle id="Ellipse_261" data-name="Ellipse 261" cx="17.5" cy="17.5" r="17.5" transform="translate(1483 3727)" fill="#4caf50"/>
    <g id="share" transform="translate(1492 3735)">
      <path id="Path_1444" data-name="Path 1444" d="M319.663,18.5a2.5,2.5,0,1,1-2.5-2.5A2.5,2.5,0,0,1,319.663,18.5Zm0,0" transform="translate(-303.333 -15.424)" fill="#fff"/>
      <path id="Path_1445" data-name="Path 1445" d="M301.742,6.148a3.074,3.074,0,1,1,3.074-3.074A3.077,3.077,0,0,1,301.742,6.148Zm0-4.995a1.921,1.921,0,1,0,1.921,1.921,1.923,1.923,0,0,0-1.921-1.921Zm0,0" transform="translate(-287.91)" fill="#fff"/>
      <path id="Path_1446" data-name="Path 1446" d="M319.663,359.83a2.5,2.5,0,1,1-2.5-2.5A2.5,2.5,0,0,1,319.663,359.83Zm0,0" transform="translate(-303.333 -344.461)" fill="#fff"/>
      <path id="Path_1447" data-name="Path 1447" d="M301.742,347.48a3.074,3.074,0,1,1,3.074-3.074A3.077,3.077,0,0,1,301.742,347.48Zm0-4.995a1.921,1.921,0,1,0,1.921,1.921A1.923,1.923,0,0,0,301.742,342.485Zm0,0" transform="translate(-287.91 -329.037)" fill="#fff"/>
      <path id="Path_1448" data-name="Path 1448" d="M21,189.165a2.5,2.5,0,1,1-2.5-2.5A2.5,2.5,0,0,1,21,189.165Zm0,0" transform="translate(-15.424 -179.944)" fill="#fff"/>
      <path id="Path_1449" data-name="Path 1449" d="M3.074,176.815a3.074,3.074,0,1,1,3.074-3.074,3.077,3.077,0,0,1-3.074,3.074Zm0-4.995a1.921,1.921,0,1,0,1.921,1.921,1.923,1.923,0,0,0-1.921-1.921Zm0,0" transform="translate(0 -164.52)" fill="#fff"/>
      <path id="Path_1450" data-name="Path 1450" d="M115.118,95.817a.769.769,0,0,1-.381-1.436l7.13-4.065a.769.769,0,1,1,.761,1.336l-7.13,4.065a.763.763,0,0,1-.379.1Zm0,0" transform="translate(-110.229 -86.965)" fill="#fff"/>
      <path id="Path_1451" data-name="Path 1451" d="M122.269,271.821a.764.764,0,0,1-.38-.1l-7.13-4.065a.769.769,0,0,1,.761-1.336l7.13,4.065a.769.769,0,0,1-.381,1.436Zm0,0" transform="translate(-110.251 -256.629)" fill="#fff"/>
    </g>
  </g>
</svg>
