<svg xmlns="http://www.w3.org/2000/svg" width="35" height="35" viewBox="0 0 35 35">
  <g id="Group_1020" data-name="Group 1020" transform="translate(0.083)">
    <rect id="Rectangle_1620" data-name="Rectangle 1620" width="24" height="18" transform="translate(5.916 8)" fill="#fff"/>
    <g id="Icons" transform="translate(-0.083)">
      <g id="Social-Media-Collection" transform="translate(0)">
        <g id="Twitter">
          <path id="Fill-184" d="M24.458,13.931c.007.154.011.308.011.465A10.212,10.212,0,0,1,8.75,23a7.38,7.38,0,0,0,.856.049,7.2,7.2,0,0,0,4.459-1.537,3.593,3.593,0,0,1-3.354-2.493,3.626,3.626,0,0,0,1.622-.062,3.591,3.591,0,0,1-2.88-3.52V15.39a3.573,3.573,0,0,0,1.626.45,3.593,3.593,0,0,1-1.111-4.794,10.194,10.194,0,0,0,7.4,3.752,3.592,3.592,0,0,1,6.117-3.275,7.184,7.184,0,0,0,2.28-.871,3.608,3.608,0,0,1-1.578,1.986,7.2,7.2,0,0,0,2.062-.565,7.308,7.308,0,0,1-1.792,1.858M17.5,0A17.5,17.5,0,1,0,35,17.5,17.5,17.5,0,0,0,17.5,0" transform="translate(0)" fill="#41a1f2" fill-rule="evenodd"/>
        </g>
      </g>
    </g>
  </g>
</svg>
