<?xml version="1.0" encoding="utf-8"?>
<!-- Generator: Adobe Illustrator 16.0.0, SVG Export Plug-In . SVG Version: 6.00 Build 0)  -->
<!DOCTYPE svg PUBLIC "-//W3C//DTD SVG 1.1//EN" "http://www.w3.org/Graphics/SVG/1.1/DTD/svg11.dtd">
<svg version="1.1" id="Capa_1" xmlns="http://www.w3.org/2000/svg" xmlns:xlink="http://www.w3.org/1999/xlink" x="0px" y="0px"
	 width="300px" height="300px" viewBox="350 350 300 300" enable-background="new 350 350 300 300" xml:space="preserve">
<g>
	<g>
		<g>
			<circle fill="#64C1C9" cx="500" cy="571.777" r="14.648"/>
			<path fill="#64C1C9" d="M500,350c-82.901,0-150,67.088-150,150c0,82.9,67.088,150,150,150c82.9,0,150-67.088,150-150
				C650,417.099,582.912,350,500,350z M500,626.562c-69.947,0-126.562-56.605-126.562-126.562
				c0-69.947,56.605-126.562,126.562-126.562c69.947,0,126.562,56.605,126.562,126.562C626.562,569.947,569.957,626.562,500,626.562
				z"/>
			<path fill="#64C1C9" d="M500,425.293c-25.847,0-46.875,21.028-46.875,46.875c0,6.472,5.247,11.719,11.719,11.719
				s11.719-5.247,11.719-11.719c0-12.923,10.514-23.438,23.438-23.438c12.924,0,23.438,10.514,23.438,23.438
				S512.924,495.605,500,495.605c-6.472,0-11.719,5.246-11.719,11.719v29.297c0,6.473,5.247,11.719,11.719,11.719
				c6.473,0,11.719-5.246,11.719-11.719V517.56c20.195-5.216,35.156-23.589,35.156-45.392
				C546.875,446.321,525.847,425.293,500,425.293z"/>
		</g>
	</g>
</g>
</svg>
