<svg xmlns="http://www.w3.org/2000/svg" xmlns:xlink="http://www.w3.org/1999/xlink" width="180" height="180" viewBox="0 0 180 180">
  <defs>
    <clipPath id="clip-regis">
      <rect width="180" height="180"/>
    </clipPath>
  </defs>
  <g id="regis" clip-path="url(#clip-regis)">
    <g id="Group_1394" data-name="Group 1394" transform="translate(-551 -522)">
      <g id="edit" transform="translate(585 552)">
        <path id="Path_8" data-name="Path 8" d="M14,77.131a2.632,2.632,0,0,1-1.846-.761,2.605,2.605,0,0,1-.715-2.352l3.687-18.436a2.556,2.556,0,0,1,.715-1.335L56.411,13.68a7.838,7.838,0,0,1,11.062,0l7.375,7.375a7.828,7.828,0,0,1,0,11.062L34.282,72.682a2.593,2.593,0,0,1-1.335.715L14.511,77.084A2.767,2.767,0,0,1,14,77.131ZM20.1,57.37,17.332,71.2l13.826-2.764L71.165,28.424a2.609,2.609,0,0,0,0-3.687l-7.375-7.375a2.609,2.609,0,0,0-3.687,0ZM32.441,70.836h.052Z" transform="translate(48.027 48.038)" fill="#006b39"/>
        <path id="Path_9" data-name="Path 9" d="M49.546,96.877H13.038A13.05,13.05,0,0,1,0,83.838v-67.8A13.05,13.05,0,0,1,13.038,3H23.469a2.608,2.608,0,0,1,0,5.215H13.038a7.833,7.833,0,0,0-7.823,7.823v67.8a7.833,7.833,0,0,0,7.823,7.823H49.546a2.608,2.608,0,1,1,0,5.215Z" transform="translate(0 12.646)" fill="#006b39"/>
        <path id="Path_10" data-name="Path 10" d="M35.469,49.938a2.609,2.609,0,0,1-2.608-2.608V16.038a7.833,7.833,0,0,0-7.823-7.823H14.608a2.608,2.608,0,1,1,0-5.215H25.038A13.05,13.05,0,0,1,38.077,16.038V47.331A2.609,2.609,0,0,1,35.469,49.938Z" transform="translate(50.584 12.646)" fill="#006b39"/>
        <path id="Path_11" data-name="Path 11" d="M43.115,31.292H11.823A7.833,7.833,0,0,1,4,23.469V13.038a2.609,2.609,0,0,1,2.608-2.608h8.084a13.042,13.042,0,0,1,25.555,0h8.084a2.609,2.609,0,0,1,2.608,2.608V23.469A7.833,7.833,0,0,1,43.115,31.292ZM9.215,15.646v7.823a2.615,2.615,0,0,0,2.608,2.608H43.115a2.615,2.615,0,0,0,2.608-2.608V15.646H37.9a2.609,2.609,0,0,1-2.608-2.608,7.823,7.823,0,1,0-15.646,0,2.609,2.609,0,0,1-2.608,2.608Z" transform="translate(16.861)" fill="#006b39"/>
        <path id="Path_12" data-name="Path 12" d="M57.761,13.215H5.608A2.608,2.608,0,1,1,5.608,8H57.761a2.608,2.608,0,1,1,0,5.215Z" transform="translate(12.646 33.723)" fill="#006b39"/>
        <path id="Path_13" data-name="Path 13" d="M57.761,16.215H5.608a2.608,2.608,0,1,1,0-5.215H57.761a2.608,2.608,0,1,1,0,5.215Z" transform="translate(12.646 46.369)" fill="#006b39"/>
        <path id="Path_14" data-name="Path 14" d="M57.761,19.215H5.608a2.608,2.608,0,1,1,0-5.215H57.761a2.608,2.608,0,1,1,0,5.215Z" transform="translate(12.646 59.015)" fill="#006b39"/>
      </g>
      <g id="Ellipse_2" data-name="Ellipse 2" transform="translate(551 522)" fill="none" stroke="#006b39" stroke-width="10">
        <circle cx="90" cy="90" r="90" stroke="none"/>
        <circle cx="90" cy="90" r="85" fill="none"/>
      </g>
    </g>
  </g>
</svg>
