<svg xmlns="http://www.w3.org/2000/svg" xmlns:xlink="http://www.w3.org/1999/xlink" width="180" height="180" viewBox="0 0 180 180">
  <defs>
    <clipPath id="clip-approval">
      <rect width="180" height="180"/>
    </clipPath>
  </defs>
  <g id="approval" clip-path="url(#clip-approval)">
    <g id="Group_1395" data-name="Group 1395" transform="translate(-7181 405)">
      <g id="verify" transform="translate(7214.016 -376)">
        <path id="Path_15" data-name="Path 15" d="M44.18,77.36A33.18,33.18,0,1,1,77.36,44.18,33.218,33.218,0,0,1,44.18,77.36Zm0-61.255A28.075,28.075,0,1,0,72.255,44.18,28.109,28.109,0,0,0,44.18,16.1Z" transform="translate(42.151 41.151)" fill="#006b39"/>
        <path id="Path_16" data-name="Path 16" d="M26.763,40.524a2.58,2.58,0,0,1-1.807-.745L14.746,29.569a2.552,2.552,0,1,1,3.609-3.609l8.28,8.28L42.7,15.874a2.552,2.552,0,0,1,3.844,3.359L28.682,39.651a2.571,2.571,0,0,1-1.838.873h-.082Z" transform="translate(54.464 57.568)" fill="#006b39"/>
        <path id="Path_17" data-name="Path 17" d="M48.494,94.883H12.762A12.776,12.776,0,0,1,0,82.122V15.762A12.776,12.776,0,0,1,12.762,3H22.971a2.552,2.552,0,0,1,0,5.1H12.762A7.666,7.666,0,0,0,5.1,15.762v66.36a7.666,7.666,0,0,0,7.657,7.657H48.494a2.552,2.552,0,1,1,0,5.1Z" transform="translate(0 12.314)" fill="#006b39"/>
        <path id="Path_18" data-name="Path 18" d="M34.971,33.628a2.553,2.553,0,0,1-2.552-2.552V15.762A7.666,7.666,0,0,0,24.762,8.1H14.552a2.552,2.552,0,1,1,0-5.1H24.762A12.776,12.776,0,0,1,37.523,15.762V31.075A2.553,2.553,0,0,1,34.971,33.628Z" transform="translate(49.255 12.314)" fill="#006b39"/>
        <path id="Path_19" data-name="Path 19" d="M42.285,30.628H11.657A7.666,7.666,0,0,1,4,22.971V12.762a2.553,2.553,0,0,1,2.552-2.552h7.912a12.765,12.765,0,0,1,25.013,0h7.912a2.553,2.553,0,0,1,2.552,2.552V22.971A7.666,7.666,0,0,1,42.285,30.628ZM9.1,15.314v7.657a2.557,2.557,0,0,0,2.552,2.552H42.285a2.557,2.557,0,0,0,2.552-2.552V15.314H37.18a2.553,2.553,0,0,1-2.552-2.552,7.657,7.657,0,1,0-15.314,0,2.553,2.553,0,0,1-2.552,2.552Z" transform="translate(16.418)" fill="#006b39"/>
        <path id="Path_20" data-name="Path 20" d="M56.6,13.1H5.552a2.552,2.552,0,1,1,0-5.1H56.6a2.552,2.552,0,1,1,0,5.1Z" transform="translate(12.314 32.837)" fill="#006b39"/>
        <path id="Path_21" data-name="Path 21" d="M41.285,16.1H5.552a2.552,2.552,0,1,1,0-5.1H41.285a2.552,2.552,0,0,1,0,5.1Z" transform="translate(12.314 45.151)" fill="#006b39"/>
        <path id="Path_22" data-name="Path 22" d="M31.075,19.1H5.552a2.552,2.552,0,1,1,0-5.1H31.075a2.552,2.552,0,1,1,0,5.1Z" transform="translate(12.314 57.465)" fill="#006b39"/>
      </g>
      <g id="Ellipse_231" data-name="Ellipse 231" transform="translate(7181 -405)" fill="none" stroke="#006b39" stroke-width="10">
        <circle cx="90" cy="90" r="90" stroke="none"/>
        <circle cx="90" cy="90" r="85" fill="none"/>
      </g>
    </g>
  </g>
</svg>
