<svg xmlns="http://www.w3.org/2000/svg" width="37.763" height="37.754" viewBox="0 0 37.763 37.754">
  <path id="open-book" d="M36.472,12.106H35.355a.678.678,0,0,0-.318-.633,16.062,16.062,0,0,0-1.894-.7v-3.6a.553.553,0,0,0-.553-.553A21.449,21.449,0,0,0,22.133,9.271a18.437,18.437,0,0,0-2.755,1.866,15.9,15.9,0,0,0-.962-4.179A10.567,10.567,0,0,0,10.45.059.553.553,0,0,0,9.783.6V3.128a17.694,17.694,0,0,0-3.021-.922.553.553,0,0,0-.667.541v7.619a18.906,18.906,0,0,0-3.37,1.106.678.678,0,0,0-.318.633H1.291A1.292,1.292,0,0,0,0,13.4V30.311a.553.553,0,0,0,1.106,0V13.4a.185.185,0,0,1,.184-.184H2.408V34.964a.553.553,0,0,0,.553.553H34.8a.553.553,0,0,0,.553-.553V13.212h1.117a.185.185,0,0,1,.184.184V36.519a.185.185,0,0,1-.184.184H20.544a2.343,2.343,0,0,0-3.326,0H1.291a.185.185,0,0,1-.184-.184V33.68A.553.553,0,0,0,0,33.68v2.84A1.292,1.292,0,0,0,1.291,37.81h16.18a.553.553,0,0,0,.441-.219,1.227,1.227,0,0,1,1.94,0,.553.553,0,0,0,.441.219h16.18a1.292,1.292,0,0,0,1.291-1.291V13.4A1.292,1.292,0,0,0,36.472,12.106ZM32.037,7.733V13.4a.553.553,0,1,0,1.106,0V11.933c.486.16.862.305,1.105.4V32.481a19.658,19.658,0,0,0-9.918-.671,20.459,20.459,0,0,1,8.259-1.7.553.553,0,0,0,.553-.553V16.79a.553.553,0,1,0-1.106,0V29.015a21.389,21.389,0,0,0-9.9,2.645,18.528,18.528,0,0,0-2.7,1.819V12.566a19.252,19.252,0,0,1,12.6-4.832ZM10.89,1.3a9.36,9.36,0,0,1,6.482,6.022,14.673,14.673,0,0,1,.957,5s0,.008,0,.012V29.124a10.52,10.52,0,0,0-7.439-6.576ZM9.783,4.328V22.989a.553.553,0,0,0,.44.541,9.386,9.386,0,0,1,7.149,6.182,14.257,14.257,0,0,1,.719,2.585,20.147,20.147,0,0,0-1.624-2.048A18.159,18.159,0,0,0,7.2,24.693V3.443a16.488,16.488,0,0,1,2.581.884Zm-6.269,8.01A19.563,19.563,0,0,1,6.1,11.506V25.136a.553.553,0,0,0,.44.541,17.014,17.014,0,0,1,9.084,5.284,18.941,18.941,0,0,1,1.7,2.163,15.69,15.69,0,0,0-2.517-.977,19.16,19.16,0,0,0-11.283.334V12.338Zm0,21.308a18.2,18.2,0,0,1,10.916-.453,14.253,14.253,0,0,1,2.952,1.218H3.514Zm16.862.766a14.233,14.233,0,0,1,2.9-1.2,18.173,18.173,0,0,1,10.971.436v.766Z" transform="translate(0 -0.056)" fill="#0160d6"/>
</svg>
