<svg xmlns="http://www.w3.org/2000/svg" width="36.501" height="37.023" viewBox="0 0 36.501 37.023">
  <g id="developing" transform="translate(-1 -0.113)">
    <circle id="Ellipse_272" data-name="Ellipse 272" cx="0.589" cy="0.589" r="0.589" transform="translate(18.662 17.12)" fill="#0160d6"/>
    <path id="Path_4379" data-name="Path 4379" d="M26.653,26.775a2.939,2.939,0,0,0,2.453-4.564L30.92,20.4a2.952,2.952,0,1,0-.832-.832l-1.813,1.813a2.938,2.938,0,0,0-4.5,1.864H22.424a1.766,1.766,0,1,0,0,1.177h1.345A2.949,2.949,0,0,0,26.653,26.775Zm5.887-10.6a1.766,1.766,0,1,1-1.766,1.766A1.768,1.768,0,0,1,32.541,16.177Zm-5.887,5.887a1.766,1.766,0,1,1-1.766,1.766A1.768,1.768,0,0,1,26.653,22.065ZM20.766,24.42a.589.589,0,1,1,.589-.589A.589.589,0,0,1,20.766,24.42Z" transform="translate(-7.403 -6.123)" fill="#0160d6"/>
    <circle id="Ellipse_273" data-name="Ellipse 273" cx="0.589" cy="0.589" r="0.589" transform="translate(24.549 11.232)" fill="#0160d6"/>
    <path id="Path_4380" data-name="Path 4380" d="M2.195,42.522H3.846v4.71H5.024V41.345h-.7L6.2,38.335l1.881,3.01h-.7v10.6H8.556v-9.42h1.651L6.2,36.113Z" transform="translate(-0.491 -14.806)" fill="#0160d6"/>
    <path id="Path_4381" data-name="Path 4381" d="M5,57H6.177v3.532H5Z" transform="translate(-1.645 -23.396)" fill="#0160d6"/>
    <path id="Path_4382" data-name="Path 4382" d="M49.846,7.7h1.177V5.345h-.7L52.2,2.335l1.881,3.01h-.7v10.6h1.177V6.522h1.651L52.2.113,48.2,6.522h1.651Z" transform="translate(-19.41 0)" fill="#0160d6"/>
    <path id="Path_4383" data-name="Path 4383" d="M36.921,25.131A1.681,1.681,0,0,1,35.83,22.5l.341-.478-3.2-3.2-.479.342a1.661,1.661,0,0,1-1.379.251,11.572,11.572,0,0,0,.493-3.1h.009V9.242H30.436V11A11.506,11.506,0,0,0,20.109,4.532H18.392a11.534,11.534,0,0,0-2.015.188L13.406,1.749l-.859.858a.55.55,0,0,1-.609.108.541.541,0,0,1-.34-.5V1H6.887V2.215a.562.562,0,0,1-.949.393l-.859-.858-3.33,3.33.858.86a.549.549,0,0,1,.109.609.542.542,0,0,1-.5.34H1V11.6H2.215a.549.549,0,0,1,.507.356.542.542,0,0,1-.115.594l-.858.859,3.33,3.33.859-.858a.55.55,0,0,1,.609-.108.541.541,0,0,1,.34.5H6.9a11.436,11.436,0,0,0,6.351,10.057l.705.353v1.4a1.179,1.179,0,0,0,1.177,1.177h2.355v.5l.582.1a1.66,1.66,0,0,1,1,.582H15.129a1.179,1.179,0,0,0-1.177,1.177V32.2a5.294,5.294,0,0,0,9.422,3.32,1.688,1.688,0,0,1,.746.123,1.663,1.663,0,0,1,1.011,1.273l.1.583h4.53l.095-.579A1.682,1.682,0,0,1,32.49,35.83l.479.341,3.2-3.2-.341-.477a1.682,1.682,0,0,1,1.087-2.637l.583-.1v-4.53Zm-13.55,5.305H23.1a5.252,5.252,0,0,1-.594-1.177h.87a1.159,1.159,0,0,0,.371-.066A4.12,4.12,0,1,0,28.8,23.582a11.463,11.463,0,0,0,.759-.97,5.3,5.3,0,1,1-5.009,9.282v-.281A1.179,1.179,0,0,0,23.372,30.436ZM25.726,24.7a10.48,10.48,0,0,1-1,.576l-.179.089V17.484h1.177Zm-1.177,1.982.705-.353a11.611,11.611,0,0,0,2.564-1.746,2.937,2.937,0,1,1-3.269,2.912ZM5.106,15.043l-.026.026L3.414,13.4l.026-.026A1.739,1.739,0,0,0,2.215,10.42H2.177V8.065h.037A1.74,1.74,0,0,0,3.44,5.106l-.026-.026L5.079,3.414l.026.026A1.739,1.739,0,0,0,8.065,2.215V2.177H10.42v.037a1.74,1.74,0,0,0,2.96,1.226l.026-.026,1.623,1.623A11.419,11.419,0,0,0,12.7,6.051a4.7,4.7,0,1,0-5.515,7.416,11.273,11.273,0,0,0-.211,1.205,1.717,1.717,0,0,0-1.87.371ZM8.52,10.16a1.169,1.169,0,0,1,.722-2.1,1.165,1.165,0,0,1,.672.222A11.537,11.537,0,0,0,8.52,10.16Zm2.243-2.711a2.35,2.35,0,1,0-2.8,3.762,11.5,11.5,0,0,0-.447,1.109,3.528,3.528,0,1,1,4.174-5.614,11.6,11.6,0,0,0-.926.744Zm3.01,17.824a10.533,10.533,0,0,1-1-.576v-2.5h1.177v3.169ZM11.6,21.017v2.8a10.326,10.326,0,0,1,6.794-18.1h1.718a10.326,10.326,0,0,1,6.794,18.1V16.307H23.372V28.081H21.017V22.194H17.484v5.887H15.129V21.017Zm8.242,7.065H18.662v-4.71h1.177Zm.589,2.335a2.831,2.831,0,0,0-.9-1.158H21.27a6.462,6.462,0,0,0,.465,1.177h-1.3c0-.006,0-.013-.006-.019ZM19.25,36.324A4.126,4.126,0,0,1,15.129,32.2v-.589h8.242V32.2A4.126,4.126,0,0,1,19.25,36.324ZM36.324,28.79a2.861,2.861,0,0,0-1.668,4.03l-1.836,1.835a2.86,2.86,0,0,0-4.029,1.668H26.2a2.8,2.8,0,0,0-2.134-1.917,5.258,5.258,0,0,0,.388-1.2,6.412,6.412,0,0,0,3.043.76A6.474,6.474,0,0,0,30.183,21.6a11.329,11.329,0,0,0,.523-1.076,2.837,2.837,0,0,0,2.114-.2l1.835,1.835a2.861,2.861,0,0,0,1.669,4.03Z" transform="translate(0 -0.365)" fill="#0160d6"/>
  </g>
</svg>
