<svg xmlns="http://www.w3.org/2000/svg" width="39.011" height="35.432" viewBox="0 0 39.011 35.432">
  <g id="search_1_" data-name="search (1)" transform="translate(0 -23.486)">
    <path id="Path_4389" data-name="Path 4389" d="M38.269,51.915l-2.028-2.028.159-.159a1.921,1.921,0,0,0,.542-1.638,5.531,5.531,0,0,0,.414-2.109V29.07a5.589,5.589,0,0,0-5.583-5.584H5.583A5.59,5.59,0,0,0,0,29.07V45.98a5.59,5.59,0,0,0,5.584,5.584h6.47v2.193h-1a2.581,2.581,0,0,0,0,5.162h15.26a2.581,2.581,0,0,0,0-5.162h-1v-1.4q.157.033.316.061a8.357,8.357,0,0,0,1.42.122,8.227,8.227,0,0,0,2.176-.293A1.922,1.922,0,0,0,32.5,53.631l.159-.159L34.684,55.5a2.535,2.535,0,1,0,3.585-3.585ZM1.143,45.98V29.07a4.446,4.446,0,0,1,4.441-4.441H31.774a4.445,4.445,0,0,1,4.44,4.441V45.98a4.473,4.473,0,0,1-.075.81,1.908,1.908,0,0,0-1.1-.345h-.028a8.287,8.287,0,0,0-.442-5.6V29.069a2.8,2.8,0,0,0-2.8-2.8H8.837a.571.571,0,1,0,0,1.143H31.773a1.656,1.656,0,0,1,1.654,1.654v9.944c-.172-.208-.353-.41-.546-.6a8.278,8.278,0,0,0-13.411,9.223H5.584A1.656,1.656,0,0,1,3.929,45.98V29.069a1.656,1.656,0,0,1,1.654-1.654h.968a.571.571,0,1,0,0-1.143H5.584a2.8,2.8,0,0,0-2.8,2.8V45.98a2.8,2.8,0,0,0,2.8,2.8H20.1a8.351,8.351,0,0,0,1.085,1.335c.106.106.216.208.327.308H5.583A4.446,4.446,0,0,1,1.143,45.98Zm26.6,10.357a1.44,1.44,0,0,1-1.438,1.438H11.049a1.438,1.438,0,0,1,0-2.876h15.26A1.44,1.44,0,0,1,27.747,56.337Zm-3.586-2.581H13.2V51.563h9.94a8.18,8.18,0,0,0,1.024.46ZM21.989,49.3A7.131,7.131,0,0,1,32.074,39.219a7.164,7.164,0,0,1,1.487,7.91L29.9,50.791A7.164,7.164,0,0,1,21.989,49.3Zm8.6,3.519a.781.781,0,0,1,0-1.1l3.9-3.9a.78.78,0,0,1,1.1,1.1l-3.9,3.9A.781.781,0,0,1,30.586,52.822Zm6.875,1.869a1.394,1.394,0,0,1-1.969,0l-2.028-2.028,1.969-1.969,2.028,2.028A1.393,1.393,0,0,1,37.461,54.692Z" transform="translate(0)" fill="#0160d6"/>
    <path id="Path_4390" data-name="Path 4390" d="M290.261,231.646A5.648,5.648,0,1,0,285,233.158a.572.572,0,0,0,.254-1.114,4.5,4.5,0,1,1,2.017,0,.572.572,0,1,0,.254,1.114A5.622,5.622,0,0,0,290.261,231.646Z" transform="translate(-259.234 -183.389)" fill="#0160d6"/>
    <path id="Path_4391" data-name="Path 4391" d="M98.286,178.153a1.73,1.73,0,0,0,0,3.46h5.734a1.73,1.73,0,1,0,0-3.46h-.14v-4.116a1.682,1.682,0,0,0-1.681-1.68H98.286a1.73,1.73,0,0,0,0,3.46h.431v2.337Zm1-3.48h-1a.587.587,0,0,1,0-1.174H102.2a.538.538,0,0,1,.538.538v4.688a.571.571,0,0,0,.571.571h.712a.587.587,0,1,1,0,1.174H98.286a.587.587,0,0,1,0-1.174h1a.571.571,0,0,0,.571-.571v-3.48A.571.571,0,0,0,99.288,174.673Z" transform="translate(-89.199 -137.527)" fill="#0160d6"/>
    <path id="Path_4392" data-name="Path 4392" d="M127.5,101.447a2.582,2.582,0,1,0-2.582-2.581A2.584,2.584,0,0,0,127.5,101.447Zm0-4.02a1.439,1.439,0,1,1-1.439,1.439,1.44,1.44,0,0,1,1.439-1.439Z" transform="translate(-115.398 -67.251)" fill="#0160d6"/>
  </g>
</svg>
