<svg xmlns="http://www.w3.org/2000/svg" width="34.839" height="40" viewBox="0 0 34.839 40">
  <g id="development" transform="translate(-5 -1)">
    <path id="Path_4384" data-name="Path 4384" d="M39.839,30.677A9.044,9.044,0,0,0,33.615,22.1a5.148,5.148,0,0,0-3.609-9.417c.036-.1.082-.206.114-.312l1.332-.314V8.041l-1.33-.314a7.908,7.908,0,0,0-.627-1.512l.719-1.163L27.4,2.237l-1.163.72a7.987,7.987,0,0,0-1.512-.627L24.41,1H20.428l-.313,1.33a7.962,7.962,0,0,0-1.512.627l-1.163-.72L14.625,5.053l.719,1.163a7.991,7.991,0,0,0-.627,1.512l-1.33.314v4.015l1.331.314c.032.105.077.207.114.312a5.093,5.093,0,0,0-.8-.069A5.157,5.157,0,0,0,11.223,22.1,9.044,9.044,0,0,0,5,30.677v2.581H15.017a8.975,8.975,0,0,0-1.63,5.161V41H31.452V38.419a8.975,8.975,0,0,0-1.63-5.161H39.839Zm-7.742-7.1c0,1.049-.591,1.935-1.29,1.935s-1.29-.886-1.29-1.935a2.589,2.589,0,0,1,.065-.545,7.3,7.3,0,0,1,2.454.006A2.618,2.618,0,0,1,32.1,23.581Zm-9.677,5.806a3.871,3.871,0,1,1,3.871-3.871A3.875,3.875,0,0,1,22.419,29.387ZM17.4,23.708c.055.026.11.051.165.079a4.939,4.939,0,0,0-.242,2.486l-.859,1.891L14.9,26.21Zm5.022-3.354a5.16,5.16,0,0,0-4.279,2.279,9.021,9.021,0,0,0-1.3-.537,5.159,5.159,0,0,0,2.351-4.323c0-.12-.01-.237-.018-.355a8.086,8.086,0,0,0,.94.348l.313,1.33H24.41l.313-1.33a8.086,8.086,0,0,0,.94-.348c-.008.117-.018.235-.018.355A5.158,5.158,0,0,0,28,22.1a8.974,8.974,0,0,0-1.3.537,5.161,5.161,0,0,0-4.28-2.28Zm12.258-2.581A3.871,3.871,0,1,1,30.806,13.9,3.875,3.875,0,0,1,34.677,17.774Zm-18.811-6.1-.094-.384-1.095-.258V9.063l1.094-.257.094-.384a6.685,6.685,0,0,1,.781-1.883l.2-.337-.592-.957L17.63,3.873l.957.592.337-.205a6.688,6.688,0,0,1,1.884-.781l.384-.094L21.45,2.29h1.938l.257,1.094.384.094a6.707,6.707,0,0,1,1.884.781l.337.205.957-.592,1.371,1.371-.592.957.2.337a6.685,6.685,0,0,1,.781,1.883l.094.384,1.095.258v1.972l-1.094.257-.094.384a6.649,6.649,0,0,1-.61,1.554,5.194,5.194,0,0,0-2.3,2.518l-.147.089a6.688,6.688,0,0,1-1.884.781l-.384.094-.257,1.094H21.451l-.257-1.095-.384-.094a6.7,6.7,0,0,1-1.884-.781l-.147-.089a5.193,5.193,0,0,0-2.3-2.519,6.592,6.592,0,0,1-.61-1.552Zm-5.705,6.1a3.871,3.871,0,1,1,3.871,3.871A3.875,3.875,0,0,1,10.161,17.774Zm5.91,5.435-2.039,2.039L12,23.215a7.622,7.622,0,0,1,4.073-.006Zm-2.9,3L11.6,28.163,9.8,24.2a7.738,7.738,0,0,1,.87-.488ZM6.29,30.677a7.713,7.713,0,0,1,2.47-5.653L11.3,30.611l2.733-3.417,2.733,3.417,1.163-2.559a5.2,5.2,0,0,0,1.681,1.789,9.034,9.034,0,0,0-3.5,2.128H9.516V28.1H8.226v3.871H6.29Zm16.129,0a7.684,7.684,0,0,1,3.148.675l-3.148,7.36-3.148-7.361A7.694,7.694,0,0,1,22.419,30.677Zm-7.742,7.742a7.738,7.738,0,0,1,3.457-6.443l3.307,7.733H17.9V35.839h-1.29V39.71H14.677Zm15.484,1.29H28.226V35.839h-1.29V39.71H23.4L26.7,31.977a7.738,7.738,0,0,1,3.457,6.443Zm8.387-7.742H36.613V28.1h-1.29v3.871H28.728a9.039,9.039,0,0,0-3.5-2.128,5.129,5.129,0,0,0,2.048-6.052,7.6,7.6,0,0,1,.967-.415c0,.069-.018.138-.018.208,0,1.779,1.157,3.226,2.581,3.226s2.581-1.447,2.581-3.226c0-.067-.014-.133-.017-.2a7.749,7.749,0,0,1,5.179,7.3Z" fill="#0160d6"/>
    <path id="Path_4385" data-name="Path 4385" d="M30.581,16.161A2.581,2.581,0,1,0,28,13.581,2.583,2.583,0,0,0,30.581,16.161Zm0-3.871a1.29,1.29,0,1,1-1.29,1.29A1.292,1.292,0,0,1,30.581,12.29Z" transform="translate(-8.161 -3.548)" fill="#0160d6"/>
    <path id="Path_4386" data-name="Path 4386" d="M29.161,17.323A5.161,5.161,0,1,0,24,12.161,5.167,5.167,0,0,0,29.161,17.323Zm0-9.032a3.871,3.871,0,1,1-3.871,3.871A3.875,3.875,0,0,1,29.161,8.29Z" transform="translate(-6.742 -2.129)" fill="#0160d6"/>
  </g>
</svg>
