<svg xmlns="http://www.w3.org/2000/svg" width="29.687" height="40" viewBox="0 0 29.687 40">
  <g id="microscope" transform="translate(-66.001)">
    <g id="Group_1465" data-name="Group 1465" transform="translate(66.001 0)">
      <path id="Path_4387" data-name="Path 4387" d="M93.345,33.75H90.766V32.3a6.118,6.118,0,0,0-1.554-4.075q.188-.171.369-.352A10.121,10.121,0,0,0,91.78,16.8a3.9,3.9,0,0,0-1.224-3.766l.236-.409a2.347,2.347,0,0,0-.248-2.695L91.5,8.28a1.577,1.577,0,0,0,.4-.054,1.551,1.551,0,0,0,.949-.727l1.172-2.03A.781.781,0,0,0,93.735,4.4L86.293.1a.781.781,0,0,0-1.067.286l-1.172,2.03a1.562,1.562,0,0,0,0,1.561L83.1,5.633a2.354,2.354,0,0,0-2.458,1.133l-4.3,7.442a2.354,2.354,0,0,0,.248,2.7l-.848,1.469a1.565,1.565,0,0,0,.572,2.134l4.736,2.734a1.563,1.563,0,0,0,2.134-.572l.848-1.47a2.317,2.317,0,0,0,.421.039,2.365,2.365,0,0,0,.613-.081,2.327,2.327,0,0,0,1.424-1.09l.235-.407a3.884,3.884,0,0,0,1.079.2,5.485,5.485,0,0,1-5.4,6.314H79.672a.781.781,0,0,0,0,1.562h2.735a.781.781,0,0,1,0,1.562h-12.5a.781.781,0,1,1,0-1.562h2.734a.781.781,0,0,0,0-1.562H69.907a2.344,2.344,0,1,0,0,4.687h1.975V33.75H68.345A2.346,2.346,0,0,0,66,36.094v3.125a.781.781,0,0,0,.781.781H94.907a.781.781,0,0,0,.781-.781V36.094A2.346,2.346,0,0,0,93.345,33.75ZM89.2,32.3V33.75H87.641V32.3a3,3,0,0,0-1.1-2.325,10.08,10.08,0,0,0,1.434-.789A4.56,4.56,0,0,1,89.2,32.3Zm-6.8-1.445h2.227A1.447,1.447,0,0,1,86.079,32.3V33.75h-5.6V30.859ZM87.966,18.3a2.344,2.344,0,1,1,2.344-2.344A2.346,2.346,0,0,1,87.966,18.3Zm-3.446-12L85.3,4.946,90.038,7.68l-.781,1.353Zm1.667-4.45,6.089,3.516L91.5,6.717,85.407,3.2ZM77.1,19.154,77.88,17.8l4.736,2.734-.781,1.353Zm8.042.133a.786.786,0,0,1-1.067.286l-6.089-3.515h0A.786.786,0,0,1,77.7,14.99L82,7.547a.786.786,0,0,1,1.067-.286l6.089,3.516a.782.782,0,0,1,.286,1.067l-.235.407a3.9,3.9,0,0,0-3.826,6.626Zm-.662,8.135a7.024,7.024,0,0,0,4.872-7.814,3.917,3.917,0,0,0,1.409-.925,8.625,8.625,0,0,1-6.057,10.3,2.343,2.343,0,0,0-.224-1.564ZM73.445,30.859h5.469V33.75H73.445Zm20.681,7.578H67.563V36.094a.782.782,0,0,1,.781-.781h25a.782.782,0,0,1,.781.781Z" transform="translate(-66.001 0)" fill="#0160d6"/>
      <path id="Path_4388" data-name="Path 4388" d="M187.56,335.782a.781.781,0,0,0-.781-.781h0a.781.781,0,1,0,.782.781Z" transform="translate(-176.622 -308.829)" fill="#0160d6"/>
    </g>
  </g>
</svg>
